<?xml version="1.0" encoding="utf-8"?>
<!-- Generator: Adobe Illustrator 21.1.0, SVG Export Plug-In . SVG Version: 6.00 Build 0)  -->
<svg version="1.1" id="Layer_1" xmlns="http://www.w3.org/2000/svg" xmlns:xlink="http://www.w3.org/1999/xlink" x="0px" y="0px"
	 viewBox="0 0 100 100" style="enable-background:new 0 0 100 100;" xml:space="preserve">
<path d="M85,25c2.8,0,5,2.2,5,5v40c0,2.8-2.2,5-5,5H15c-2.8,0-5-2.2-5-5V30c0-2.8,2.2-5,5-5H85 M85,20H15C9.5,20,5,24.5,5,30v40
	c0,5.5,4.5,10,10,10h70c5.5,0,10-4.5,10-10V30C95,24.5,90.5,20,85,20L85,20z"/>
<path d="M47.5,55h-25c-1.4,0-2.5-1.1-2.5-2.5l0,0c0-1.4,1.1-2.5,2.5-2.5h25c1.4,0,2.5,1.1,2.5,2.5l0,0C50,53.9,48.9,55,47.5,55z"/>
<path d="M57.5,65h-35c-1.4,0-2.5-1.1-2.5-2.5l0,0c0-1.4,1.1-2.5,2.5-2.5h35c1.4,0,2.5,1.1,2.5,2.5l0,0C60,63.9,58.9,65,57.5,65z"/>
<path d="M80.7,44.6c0.1,0,0.2,0,0.3,0.1c0.1,0,0.2,0.1,0.3,0.2l1.7,1.8c-0.8,1-1.7,1.7-2.9,2.3c-1.1,0.5-2.5,0.8-4.1,0.8
	c-1.4,0-2.7-0.2-3.9-0.7c-1.1-0.5-2.1-1.2-2.9-2c-0.8-0.9-1.4-1.9-1.8-3.1c-0.4-1.2-0.6-2.5-0.6-3.9c0-1.4,0.2-2.7,0.7-3.9
	c0.5-1.2,1.2-2.2,2-3.1s1.9-1.5,3.1-2c1.2-0.5,2.6-0.7,4-0.7c0.7,0,1.4,0.1,2,0.2c0.6,0.1,1.2,0.3,1.8,0.5c0.5,0.2,1,0.5,1.5,0.8
	c0.5,0.3,0.9,0.6,1.2,1l-1.5,2c-0.1,0.1-0.2,0.2-0.3,0.3c-0.1,0.1-0.3,0.1-0.5,0.1c-0.2,0-0.3,0-0.4-0.1c-0.1-0.1-0.3-0.2-0.4-0.3
	c-0.2-0.1-0.3-0.2-0.5-0.3c-0.2-0.1-0.4-0.2-0.7-0.3s-0.6-0.2-0.9-0.3C77.7,34,77.3,34,76.8,34c-0.8,0-1.5,0.1-2.2,0.4
	c-0.7,0.3-1.2,0.7-1.7,1.2c-0.5,0.5-0.8,1.2-1.1,1.9c-0.3,0.7-0.4,1.6-0.4,2.5c0,1,0.1,1.8,0.4,2.6s0.6,1.4,1.1,1.9s1,0.9,1.6,1.2
	c0.6,0.3,1.3,0.4,2,0.4c0.4,0,0.8,0,1.1-0.1c0.3,0,0.6-0.1,0.9-0.2c0.3-0.1,0.6-0.2,0.8-0.4c0.3-0.2,0.5-0.3,0.8-0.6
	c0.1-0.1,0.2-0.2,0.3-0.2S80.6,44.6,80.7,44.6z"/>
</svg>
