<?xml version="1.0" encoding="utf-8"?>
<!-- Generator: Adobe Illustrator 21.1.0, SVG Export Plug-In . SVG Version: 6.00 Build 0)  -->
<svg version="1.1" id="Layer_1" xmlns="http://www.w3.org/2000/svg" xmlns:xlink="http://www.w3.org/1999/xlink" x="0px" y="0px"
	 viewBox="0 0 100 100" style="enable-background:new 0 0 100 100;" xml:space="preserve">
<path d="M85,25c2.8,0,5,2.2,5,5v40c0,2.8-2.2,5-5,5H15c-2.8,0-5-2.2-5-5V30c0-2.8,2.2-5,5-5H85 M85,20H15C9.5,20,5,24.5,5,30v40
	c0,5.5,4.5,10,10,10h70c5.5,0,10-4.5,10-10V30C95,24.5,90.5,20,85,20L85,20z"/>
<path d="M47.5,55h-25c-1.4,0-2.5-1.1-2.5-2.5l0,0c0-1.4,1.1-2.5,2.5-2.5h25c1.4,0,2.5,1.1,2.5,2.5l0,0C50,53.9,48.9,55,47.5,55z"/>
<path d="M57.5,65h-35c-1.4,0-2.5-1.1-2.5-2.5l0,0c0-1.4,1.1-2.5,2.5-2.5h35c1.4,0,2.5,1.1,2.5,2.5l0,0C60,63.9,58.9,65,57.5,65z"/>
<path d="M84.1,40c0,1.4-0.2,2.6-0.7,3.8c-0.5,1.2-1.1,2.2-2,3c-0.9,0.8-1.9,1.5-3.1,2c-1.2,0.5-2.5,0.7-4,0.7h-7.4V30.5h7.4
	c1.5,0,2.8,0.2,4,0.7c1.2,0.5,2.2,1.1,3.1,2c0.9,0.8,1.5,1.8,2,3C83.9,37.4,84.1,38.6,84.1,40z M79.6,40c0-0.9-0.1-1.8-0.4-2.5
	c-0.2-0.8-0.6-1.4-1-1.9c-0.5-0.5-1-0.9-1.7-1.2c-0.7-0.3-1.4-0.4-2.3-0.4h-2.9v12.2h2.9c0.8,0,1.6-0.1,2.3-0.4
	c0.7-0.3,1.2-0.7,1.7-1.2c0.5-0.5,0.8-1.2,1-1.9C79.5,41.8,79.6,40.9,79.6,40z"/>
</svg>
