<?xml version="1.0" encoding="utf-8"?>
<!-- Generator: Adobe Illustrator 21.1.0, SVG Export Plug-In . SVG Version: 6.00 Build 0)  -->
<svg version="1.1" id="Layer_1" xmlns="http://www.w3.org/2000/svg" xmlns:xlink="http://www.w3.org/1999/xlink" x="0px" y="0px"
	 viewBox="0 0 200 43" style="enable-background:new 0 0 200 43;" xml:space="preserve">
<style type="text/css">
	.st0{display:none;fill:#E32726;}
	.st1{fill:#FFFFFF;}
	.st2{display:none;}
	.st3{display:inline;fill:#FFFFFF;}
</style>
<rect class="st0" width="200" height="50"/>
<g>
	<path class="st1" d="M18.9,28.8c-2.6,0.3-5.1,0.4-7.5,0.9c-1.9,0.4-2.8,2.2-2.5,4.5c0.3,1.9,1.4,2.9,3.5,2.9
		c2.4,0.1,4.3-0.9,6.1-2.3c0.1-0.1,0.4-0.3,0.4-0.3s0-0.2,0-0.3C18.9,32.6,18.9,30.8,18.9,28.8 M4.2,19.8c-0.5-1.8-0.9-3.5-1.4-5.4
		c2.1-0.6,4-1.2,6.1-1.6c3.6-0.7,7.2-1,10.9-0.3c4.7,1,7.2,3.7,7.3,8.5c0.2,7,0,13.9,0,21h-7.7l-0.1-2.6c-1.5,0.8-3,1.6-4.5,2.3
		c-2.4,1-5,1.2-7.6,0.9c-5.3-0.8-7.6-4.9-7.1-9.7c0.5-4.1,3.1-6.5,6.8-7.5c2.3-0.6,4.7-0.7,7-0.9c1.4-0.1,2.8-0.2,4.1-0.2
		c0.3,0,0.8,0,0.8,0v-0.8c0.1-3-1.2-4.6-4.1-4.9c-2.9-0.3-5.8,0.2-8.7,0.9C5.5,19.5,4.9,19.7,4.2,19.8"/>
	<path class="st1" d="M151,1.6c26.9-5,87.6,4.5,13.5,23.5C184.7,17.8,208.9,0.7,151,1.6"/>
	<path class="st1" d="M105.5,35.5c-0.5,0.1-0.9,0.2-1.3,0.3c-0.6,0.1-1.1,0.2-1.7,0.3c-0.6,0.1-1.2,0.2-1.6,0.2c-0.2,0-0.4,0-0.5,0
		c-0.5,0-0.9,0-1.3-0.1c-0.8-0.2-1.5-0.5-1.9-1c-0.6-0.7-0.8-1.9-0.8-3.5V18.8h8.6v-6.4h-8.6V4.3h-8.5v8.1h-3.6h-0.5h-8.1V4.3h-8.5
		v8.1h-4.1v6.4h4.1V34c0,1.2,0.2,2.3,0.5,3.3c0.3,1.1,0.8,2,1.6,2.8c0.8,0.8,1.8,1.4,3.1,1.9c1,0.4,2.2,0.6,3.7,0.7
		c0.4,0,1.7,0,1.9,0c1.1,0,2.3-0.2,3.6-0.4c1.5-0.3,2.9-0.7,4.2-1.3l-1.1-5.6c-0.5,0.1-0.9,0.2-1.3,0.3c-0.6,0.1-1.1,0.2-1.7,0.3
		c-0.6,0.1-1.2,0.2-1.6,0.2c-0.2,0-0.4,0-0.5,0c-0.5,0-0.9,0-1.3-0.1c-0.8-0.2-1.5-0.5-1.9-1c-0.6-0.7-0.8-1.9-0.8-3.5V18.8h8.1h0.5
		h3.6V34c0,1.2,0.2,2.3,0.5,3.3c0.3,1.1,0.8,2,1.6,2.8c0.8,0.8,1.8,1.4,3.1,1.9c1,0.4,2.2,0.6,3.7,0.7c0.4,0,1.7,0,1.9,0
		c1.1,0,2.3-0.2,3.6-0.4c1.5-0.3,2.9-0.7,4.2-1.3L105.5,35.5z"/>
	<path class="st1" d="M31.8,36.2c0.2,1.2,0.7,2.3,1.3,3.2c0.7,0.9,1.6,1.6,2.8,2.2c1.2,0.5,2.8,0.8,4.7,0.8c1.4,0,3-0.3,4.9-0.9
		c1.9-0.6,3.6-1.5,5.3-2.6l0.2-0.2l0.1,3.3h8V12.5h-8.5v21c-1,0.6-2.1,1.1-3.3,1.5c-1.2,0.4-2.3,0.6-3.3,0.6c-0.9,0-1.6-0.1-2.2-0.4
		c-0.6-0.3-1-0.6-1.3-1.1c-0.3-0.5-0.5-1-0.6-1.7c-0.1-0.6-0.1-1.3-0.1-2.1v-18h-8.5v19.8C31.4,33.7,31.6,34.9,31.8,36.2"/>
	<path class="st1" d="M141,12.8h8.2v4c0.3-0.5,0.7-1.1,1.2-1.6c0.5-0.6,1-1.1,1.6-1.5c0.6-0.5,1.3-0.8,2.1-1.1
		c0.8-0.3,1.7-0.4,2.6-0.4c1.1,0,2,0.1,2.6,0.2c0.6,0.2,1.1,0.3,1.5,0.5l-2,7c-0.2-0.2-0.6-0.3-1.1-0.4c-0.5-0.1-1.2-0.2-2-0.2
		c-0.9,0-1.7,0.2-2.4,0.5c-0.7,0.3-1.4,0.7-1.9,1.2c-0.6,0.5-1,1-1.4,1.5c-0.4,0.5-0.6,0.9-0.8,1.2V42H141V12.8z"/>
	<path class="st1" d="M128.1,28.8c-2.6,0.3-5.1,0.4-7.5,0.9c-1.9,0.4-2.8,2.2-2.5,4.5c0.3,1.9,1.4,2.9,3.5,2.9
		c2.4,0.1,4.3-0.9,6.1-2.3c0.1-0.1,0.4-0.3,0.4-0.3s0-0.2,0-0.3C128.2,32.6,128.1,30.8,128.1,28.8 M113.4,19.8
		c-0.5-1.8-0.9-3.5-1.4-5.4c2.1-0.6,4-1.2,6.1-1.6c3.6-0.7,7.2-1,10.9-0.3c4.7,1,7.2,3.7,7.3,8.5c0.2,7,0,13.9,0,21h-7.7l-0.1-2.6
		c-1.5,0.8-3,1.6-4.5,2.3c-2.4,1-5,1.2-7.6,0.9c-5.3-0.8-7.6-4.9-7.1-9.7c0.5-4.1,3.1-6.5,6.8-7.5c2.3-0.6,4.7-0.7,7-0.9
		c1.4-0.1,2.8-0.2,4.1-0.2c0.3,0,0.8,0,0.8,0v-0.8c0.1-3-1.2-4.6-4.1-4.9c-2.9-0.3-5.8,0.2-8.7,0.9
		C114.8,19.5,114.1,19.7,113.4,19.8"/>
</g>
<g class="st2">
	<rect x="183.8" y="11.9" class="st3" width="2.3" height="2.3"/>
	<rect x="187.7" y="11.9" class="st3" width="2.3" height="2.3"/>
	<rect x="191.7" y="11.9" class="st3" width="2.3" height="2.3"/>
	<rect x="183.8" y="7.9" class="st3" width="2.3" height="2.3"/>
	<rect x="187.7" y="7.9" class="st3" width="2.3" height="2.3"/>
	<rect x="191.7" y="7.9" class="st3" width="2.3" height="2.3"/>
	<rect x="183.8" y="4" class="st3" width="2.3" height="2.3"/>
	<rect x="187.7" y="4" class="st3" width="2.3" height="2.3"/>
	<rect x="191.7" y="4" class="st3" width="2.3" height="2.3"/>
	<rect x="183.8" class="st3" width="2.3" height="2.3"/>
	<rect x="187.7" class="st3" width="2.3" height="2.3"/>
	<rect x="191.7" class="st3" width="2.3" height="2.3"/>
	<path class="st3" d="M90.4,35.9l-1.1-5.5c-0.4,0.1-0.9,0.2-1.3,0.3C87.5,30.9,87,31,86.5,31c-0.6,0.1-1.1,0.2-1.6,0.2
		c-0.2,0-0.4,0-0.5,0c-0.5,0-0.9,0-1.2-0.1c-0.8-0.2-1.4-0.5-1.8-1c-0.5-0.7-0.8-1.9-0.8-3.4V14.2h8.4V7.9h-8.4V0h-8.3v7.9h-4.1v6.3
		h4.1V29c0,1.1,0.2,2.2,0.4,3.3c0.3,1,0.8,1.9,1.6,2.7c0.7,0.8,1.8,1.4,3.1,1.9c1,0.4,2.2,0.6,3.6,0.7c0.4,0,1.7,0,1.9,0
		c1.1,0,2.3-0.2,3.6-0.4C87.8,36.9,89.1,36.5,90.4,35.9"/>
	<path class="st3" d="M46.1,19.4c0.1-0.9,0.2-1.7,0.5-2.5c0.2-0.8,0.6-1.5,1-2.1c0.5-0.6,1-1.1,1.7-1.4c0.7-0.3,1.6-0.5,2.7-0.5
		c2,0,3.4,0.6,4.1,1.9c0.7,1.2,1.1,2.8,1.1,4.7H46.1z M63,12.6c-0.9-1.5-2.2-2.7-4-3.6c-1.8-1-4.2-1.5-7.3-1.5c-2.9,0-5.2,0.5-7,1.5
		c-1.8,1-3.3,2.2-4.3,3.7c-1.1,1.5-1.8,3.1-2.2,4.9c-0.4,1.8-0.6,3.5-0.6,5.1c0,2,0.2,3.9,0.6,5.7c0.4,1.8,1.1,3.4,2.2,4.7
		c1.1,1.4,2.5,2.5,4.4,3.3c1.9,0.8,4.3,1.2,7.2,1.2c2,0,4.1-0.2,6.2-0.6c2.1-0.4,4.1-1.2,6.1-2.2l-1.7-5.1c-1.5,0.5-3,1-4.6,1.3
		c-1.6,0.3-3.1,0.5-4.7,0.5c-2.6,0-4.4-0.6-5.6-1.7c-1.1-1.1-1.7-2.8-1.7-5.1h18.9v-3c0-1.3-0.1-2.8-0.3-4.4
		C64.4,15.6,63.8,14.1,63,12.6"/>
	<path class="st3" d="M135.7,19.4c0.1-0.9,0.2-1.7,0.5-2.5c0.2-0.8,0.6-1.5,1-2.1c0.5-0.6,1-1.1,1.7-1.4c0.7-0.3,1.6-0.5,2.7-0.5
		c2,0,3.4,0.6,4.1,1.9c0.7,1.2,1.1,2.8,1.1,4.7H135.7z M152.6,12.6c-0.9-1.5-2.2-2.7-4-3.6c-1.8-1-4.2-1.5-7.3-1.5
		c-2.9,0-5.2,0.5-7,1.5c-1.8,1-3.3,2.2-4.3,3.7c-1.1,1.5-1.8,3.1-2.2,4.9c-0.4,1.8-0.6,3.5-0.6,5.1c0,2,0.2,3.9,0.6,5.7
		c0.4,1.8,1.2,3.4,2.2,4.7c1.1,1.4,2.5,2.5,4.4,3.3c1.9,0.8,4.3,1.2,7.2,1.2c2,0,4.1-0.2,6.2-0.6c2.1-0.4,4.1-1.2,6.1-2.2l-1.7-5.1
		c-1.5,0.5-3,1-4.6,1.3c-1.6,0.3-3.1,0.5-4.7,0.5c-2.6,0-4.4-0.6-5.6-1.7c-1.1-1.1-1.7-2.8-1.7-5.1h18.9v-3c0-1.3-0.1-2.8-0.3-4.4
		C154,15.6,153.4,14.1,152.6,12.6"/>
	<path class="st3" d="M121.5,13.7c-0.2-1.2-0.7-2.3-1.3-3.2c-0.6-0.9-1.6-1.6-2.7-2.2c-1.2-0.5-2.7-0.8-4.7-0.8
		c-1.4,0-3,0.3-4.9,0.9c-1.9,0.6-3.6,1.4-5.3,2.6l-0.2,0.2l-0.1-3.2h-7.9v29.2h8.4V16.3c1-0.6,2.1-1.1,3.3-1.5
		c1.2-0.4,2.3-0.6,3.3-0.6c0.9,0,1.6,0.1,2.2,0.4c0.6,0.3,1,0.6,1.3,1.1c0.3,0.5,0.5,1,0.6,1.6c0.1,0.6,0.1,1.3,0.1,2.1v17.9h8.4
		V17.5C121.8,16.1,121.7,14.9,121.5,13.7"/>
	<path class="st3" d="M19.7,12.9c3.3,0,5.3,1.8,5.3,5.2c0,3.6-2.7,4.8-5.6,4.8c-2.9,0-4.8-1.7-4.8-4.9
		C14.5,14.8,16.4,12.9,19.7,12.9 M23.9,31.4h-8.8c-1.5,0-2.2-0.7-2.2-1.6c0-0.9,1.1-1.6,2.8-1.6c0.9,0,2.5-0.1,3.6-0.1
		c8.5,0,13.8-4,13.8-10.1c0-6.1-5.3-10.5-13.7-10.5C11,7.5,6.2,12.2,6.2,18.3c0,5.2,3,6.9,3.8,7.5c-1.6,0.7-4.6,1.9-4.6,5.5
		c0,4.5,3,5.2,9.1,5.2h7.7c3.1,0,4.4,1.3,4.4,3.8c0,2.4-1.6,4.2-7.1,4.2c-4.1,0-7-1.1-7-4.2c0-0.2,0-0.3,0-0.4H5.2
		c-0.2,0.7-0.2,1.4-0.2,2c0,2,0.6,8.3,13.7,8.3c14.5,0,16.7-5.5,16.7-10.7C35.3,34.1,30.2,31.4,23.9,31.4"/>
	<path class="st3" d="M179.9,35.9l-1.1-5.5c-0.4,0.1-0.9,0.2-1.3,0.3c-0.6,0.1-1.1,0.2-1.6,0.3c-0.6,0.1-1.1,0.2-1.6,0.2
		c-0.2,0-0.4,0-0.5,0c-0.5,0-0.9,0-1.2-0.1c-0.8-0.2-1.4-0.5-1.8-1c-0.5-0.7-0.8-1.9-0.8-3.4V14.2h8.4V7.9H170V0h-8.3v7.9h-4.1v6.3
		h4.1V29c0,1.1,0.2,2.2,0.4,3.3c0.3,1,0.8,1.9,1.6,2.7c0.7,0.8,1.8,1.4,3.1,1.9c1,0.4,2.2,0.6,3.6,0.7c0.4,0,1.7,0,1.9,0
		c1.1,0,2.3-0.2,3.6-0.4C177.3,36.9,178.7,36.5,179.9,35.9"/>
</g>
</svg>
